<svg xmlns="http://www.w3.org/2000/svg" viewBox="0 0 789 124.92"><defs><style>.cls-1{fill:#303030;}.cls-2{fill:#0059d1;}</style></defs><title>horizontal</title><g id="Layer_2" data-name="Layer 2"><g id="Layer_1-2" data-name="Layer 1"><path class="cls-1" d="M285.59,21.69a3.82,3.82,0,0,1-1.12,2.8,3.71,3.71,0,0,1-2.8,1H262.94v77.63a3.73,3.73,0,0,1-3.7,3.75h-.16a3.74,3.74,0,0,1-3.53-3.75V25.44H236.79a3.65,3.65,0,0,1-3.91-3.39c0-.14,0-.28,0-.41h0A3.56,3.56,0,0,1,234,18.85a3.78,3.78,0,0,1,2.79-1H282a3.72,3.72,0,0,1,2.8,1,3.81,3.81,0,0,1,1.2,2.79Z"/><path class="cls-1" d="M298.14,17.8a3.8,3.8,0,0,1,2.8,1,3.72,3.72,0,0,1,1.12,2.8V50.5a31.42,31.42,0,0,1,18.47-7.36,26.06,26.06,0,0,1,26.11,26v.06h0v33.88a3.81,3.81,0,0,1-3.72,3.73h0a3.87,3.87,0,0,1-4.14-3.55h0v-34A18.42,18.42,0,1,0,302,68.4v34.75a3.83,3.83,0,0,1-3.89,3.71h0a3.83,3.83,0,0,1-3.83-3.71V21.58a3.57,3.57,0,0,1,1.11-2.79,3.72,3.72,0,0,1,2.8-1Z"/><path class="cls-1" d="M408.13,95.69a18.52,18.52,0,0,0,6.83-9.4,4.52,4.52,0,0,1,4.25-3.19h0a4.42,4.42,0,0,1,4.48,4.36h0a4.16,4.16,0,0,1-.31,1.67A27.64,27.64,0,0,1,414.56,101a34.28,34.28,0,0,1-21.72,6.84,35.67,35.67,0,0,1-17.49-4.26,29.36,29.36,0,0,1-12-12.26,43.66,43.66,0,0,1,0-37.78,29.6,29.6,0,0,1,12-12.26A35.13,35.13,0,0,1,392.84,37a34.36,34.36,0,0,1,17.52,4.25,28.72,28.72,0,0,1,11.2,11.2,31.58,31.58,0,0,1,4,15.41h0a6.44,6.44,0,0,1-6.39,6.36H370a2,2,0,0,0-2.11,1.88v.12h0v.19a28.28,28.28,0,0,0,3.53,12.43,22,22,0,0,0,9,8.78,26.43,26.43,0,0,0,12,2.81A25.67,25.67,0,0,0,408.13,95.69ZM380.56,46.88a22.42,22.42,0,0,0-9,8.62,26.78,26.78,0,0,0-3.41,11.2,2.81,2.81,0,0,0,2.55,3H414a2.8,2.8,0,0,0,2.8-2.8A23.74,23.74,0,0,0,414,55.4a20.78,20.78,0,0,0-8.84-8.6,28.06,28.06,0,0,0-24.58,0Z"/><path class="cls-1" d="M537.48,24.8a39.38,39.38,0,0,1,12.29,15,4.42,4.42,0,0,1-2,5.92h0a4.56,4.56,0,0,1-1.92.46h0a4.26,4.26,0,0,1-3.92-2.43A30.88,30.88,0,0,0,531.17,31a35,35,0,0,0-20.35-5.61A31.2,31.2,0,0,0,482.25,43a47.41,47.41,0,0,0,0,39.38,31.25,31.25,0,0,0,28.69,17.22A35,35,0,0,0,531.28,94,30.84,30.84,0,0,0,542,81.08a4.23,4.23,0,0,1,4-2.43h0a4.42,4.42,0,0,1,4.37,4.47h0a4.49,4.49,0,0,1-.45,1.9,39.45,39.45,0,0,1-12.29,15,43.57,43.57,0,0,1-26.48,7.8A41.9,41.9,0,0,1,489.27,102a39.75,39.75,0,0,1-15-16,55,55,0,0,1,0-47.11,39.18,39.18,0,0,1,14.92-16.12A42.08,42.08,0,0,1,511.12,17,43.43,43.43,0,0,1,537.48,24.8Z"/><path class="cls-1" d="M571.35,17.8a3.71,3.71,0,0,1,3.92,3.47v81.9a3.83,3.83,0,0,1-3.78,3.74h-.42a3.82,3.82,0,0,1-3.78-3.74V21.58a3.61,3.61,0,0,1,1.12-2.79,3.81,3.81,0,0,1,2.66-1Z"/><path class="cls-1" d="M620,43.21a31.84,31.84,0,1,1-22.39,9.33A30.84,30.84,0,0,1,620,43.21Zm0,7.84a24.19,24.19,0,1,0,24,24.38v-.22A24,24,0,0,0,620.2,51H620Z"/><path class="cls-1" d="M670,80.77a18.45,18.45,0,0,0,36.78,2.81,16.36,16.36,0,0,0,0-2.8V47A3.82,3.82,0,0,1,710.53,43h.18a3.5,3.5,0,0,1,2.8,1.12,3.77,3.77,0,0,1,1.12,2.8V80.77a26.15,26.15,0,0,1-52.29,0h0V47a3.66,3.66,0,0,1,1.1-2.8A3.48,3.48,0,0,1,666.23,43h.2a3.49,3.49,0,0,1,2.58,1.1,3.62,3.62,0,0,1,1.09,2.8Z"/><path class="cls-1" d="M785.11,17.8a4,4,0,0,1,2.8,1A3.94,3.94,0,0,1,789,21.6V75.15a31.86,31.86,0,1,1-31.85-32q12,0,24.15,10.75V21.55a3.66,3.66,0,0,1,3.44-3.83H785ZM739.94,58.05a24.19,24.19,0,0,0,17,41.23,23,23,0,0,0,16.8-7.11,24.13,24.13,0,0,0-33.29-34.94l-.44.43h0l-.31.31Z"/><path class="cls-2" d="M209.41,81.48h0v-.79a39,39,0,0,0-9.8-25.93,6.3,6.3,0,0,0,.43-2.3A6.39,6.39,0,0,0,190.3,47a39.17,39.17,0,0,0-40-.07,6.32,6.32,0,0,0-3-1.63A42.8,42.8,0,0,0,104.55,4.06a39.07,39.07,0,0,0-4.46.23,6.73,6.73,0,0,0-13,2.4,6.74,6.74,0,0,0,.08,1A43,43,0,0,0,67.85,24.83,30.53,30.53,0,0,0,19.74,59.05a31.56,31.56,0,0,0,11.83,60.82h80.88a6.38,6.38,0,0,0,12.48,0h29.53a6.39,6.39,0,0,0,12.49,0h3.29a39.21,39.21,0,0,0,37-26.2,6.38,6.38,0,0,0,2.19-12.19ZM190.12,57.77l-9.58,33h-.22a6.29,6.29,0,0,0-3,.77l-13.2-14.09a6.24,6.24,0,0,0,.7-5.3l24.08-15.5A6.82,6.82,0,0,0,190.12,57.77Zm-42.66-.05,6.71,11.79a6.09,6.09,0,0,0-.58.66l-15-6.15,4.89-6.55a6.54,6.54,0,0,0,2.35.45A6.86,6.86,0,0,0,147.46,57.72ZM107.09,46.79l10.58-10.32a6.4,6.4,0,0,0,7-.29L140,48.9a6.49,6.49,0,0,0-.57,2.64,6.33,6.33,0,0,0,1.37,3.94l-5.4,7.23L108.09,51.46a6.8,6.8,0,0,0,.09-1.1A6.36,6.36,0,0,0,107.09,46.79Zm29.48,20,15.76,6.48a5.42,5.42,0,0,0-.06.81,6.38,6.38,0,0,0,5.15,6.26L158.29,93l-34.21-5a6.21,6.21,0,0,0-1.27-2.84Zm-1.41-44.32a38.77,38.77,0,0,1,8.52,23.1,5.92,5.92,0,0,0-1.51.8L126.74,33.62a6.38,6.38,0,0,0,.12-5ZM100.42,8a38,38,0,0,1,4.13-.22A38.88,38.88,0,0,1,132.24,19.2c.25.25.49.5.73.76l-8.1,6a6.36,6.36,0,0,0-7.42-.34L99.77,9.8A6.41,6.41,0,0,0,100.42,8Zm-2.86,4.35,17.67,15.83a6.38,6.38,0,0,0,.13,6l-10.8,10.51A6.4,6.4,0,0,0,101.8,44h-.14L96.51,12.86a7.61,7.61,0,0,0,1-.58ZM79.82,59.72l16.59-5.94a6.39,6.39,0,0,0,5.39,3H102l11.84,27.39-.27.23-34-22.33a6.28,6.28,0,0,0,.28-1.87A2.59,2.59,0,0,0,79.82,59.72ZM78.3,32.31A68.51,68.51,0,0,1,90.82,12.72a6.72,6.72,0,0,0,2.41.67L98.45,45a6.39,6.39,0,0,0-3,5.44v.25l-16.68,6A6.39,6.39,0,0,0,74.83,54,48.14,48.14,0,0,1,78.3,32.31ZM77,65.46a5.18,5.18,0,0,0,.78-.62l33.94,22.29a6.38,6.38,0,0,0-.28,1.38l-21.76.77A76.91,76.91,0,0,1,77,65.46ZM93.48,94l-1.24-1.47,19.77-.7a5.28,5.28,0,0,0,.27.53l-10.71,10.31C98.89,100,96.14,97.12,93.48,94Zm20.88,19.81c-3-2.3-6.57-5.28-10.38-8.84l10.66-10.28a7,7,0,0,0,1.66.66l.53,17a6.38,6.38,0,0,0-2.47,1.48Zm3.44-31a5.82,5.82,0,0,0-.93.07l-11.69-27a6.61,6.61,0,0,0,1.5-1.29l26.72,11L120.15,83.19a6.3,6.3,0,0,0-2.35-.45Zm6.83,33.43a6.35,6.35,0,0,0-4.47-3.89l-.54-17a6.35,6.35,0,0,0,1.85-.9L154.83,116l.26.17Zm32.25-2.79L123.61,91.76c.06-.14.12-.28.17-.43l34.74,5,1.09,15.82a6.45,6.45,0,0,0-2.73,1.23Zm1.77-45.71a6.16,6.16,0,0,0-1.6.2l-6.7-11.8a6.32,6.32,0,0,0,1.74-5.92,35.59,35.59,0,0,1,35.75-.33,6.49,6.49,0,0,0-.57,2.64,7.31,7.31,0,0,0,.1,1.14L162.94,69.32a6.36,6.36,0,0,0-4.29-1.65Zm2.08,12.42a7.72,7.72,0,0,0,.93-.41l13.21,14.12a6.74,6.74,0,0,0-.67,1.5l-12.55-1.82Zm9.51,36.13h-3.59A6.33,6.33,0,0,0,163,112.6L161.88,97l12.24,1.78a6.39,6.39,0,0,0,6.18,4.85l3.28,10.14a35.58,35.58,0,0,1-13.34,2.5Zm25.12-10.41a35.88,35.88,0,0,1-8.74,6.43l-3.11-9.59a6.37,6.37,0,0,0,3.19-5.37l15-6.16a6.39,6.39,0,0,0,2,1.73,35.24,35.24,0,0,1-8.34,12.93ZM205.77,81a6.38,6.38,0,0,0-5.36,6.3c0,.24,0,.48,0,.73l-14.55,6a6.25,6.25,0,0,0-2.18-2.3l9.55-32.89h.38a6.41,6.41,0,0,0,3.67-1.15,35.18,35.18,0,0,1,8.45,23Z"/></g></g></svg>