<svg xmlns="http://www.w3.org/2000/svg" viewBox="0 0 642.2 376.21"><defs><style>.cls-1{fill:#fff;}</style></defs><title>icon_white</title><g id="Layer_2" data-name="Layer 2"><g id="Layer_1-2" data-name="Layer 1"><path class="cls-1" d="M630.82,245.54h0v-2.39A117.53,117.53,0,0,0,601.3,165a19.22,19.22,0,0,0-28-23.27,118.11,118.11,0,0,0-120.45-.22,19.32,19.32,0,0,0-9-4.92A128.94,128.94,0,0,0,301.58,13.05a20.27,20.27,0,0,0-39.21,7.23,19.65,19.65,0,0,0,.25,3.17,129.33,129.33,0,0,0-58.15,51.47A91.93,91.93,0,0,0,59.58,178,95,95,0,0,0,95.2,361.15c1.56,0,3.12,0,4.68-.13h238.9a19.23,19.23,0,0,0,37.6,0h88.95a19.23,19.23,0,0,0,37.6,0h4.22c1.91.08,3.81.13,5.74.13a118,118,0,0,0,111.37-78.91,19.22,19.22,0,0,0,6.61-36.7Zm-58.11-71.41-28.83,99.29h-.67a19.19,19.19,0,0,0-9.17,2.33L494.29,233.3a19.29,19.29,0,0,0,2-16l72.53-46.66A19,19,0,0,0,572.71,174.13ZM444.25,174l20.19,35.53a20.7,20.7,0,0,0-1.75,2L417.6,193l14.74-19.73a19.2,19.2,0,0,0,11.91.75ZM322.64,141l31.89-31a19.22,19.22,0,0,0,20.94-.88l46.46,38.31a19.18,19.18,0,0,0,2.39,19.81L408.05,189l-82.4-33.88a19.2,19.2,0,0,0-3-14.09Zm88.79,60.17,47.46,19.51a18.18,18.18,0,0,0-.16,2.44A19.21,19.21,0,0,0,474.23,242l2.62,38.18-103-15a19.05,19.05,0,0,0-3.83-8.56ZM407.15,67.71a116.87,116.87,0,0,1,25.65,69.58,19,19,0,0,0-4.55,2.4l-46.46-38.3a19.19,19.19,0,0,0,.36-15ZM302.56,24a117.94,117.94,0,0,1,95.83,33.87c.75.75,1.48,1.5,2.21,2.27L376.21,78.34a19.23,19.23,0,0,0-22.37-1L300.6,29.66A19.74,19.74,0,0,0,302.56,24Zm-8.62,13.1,53.21,47.67a19.24,19.24,0,0,0,.38,18L315,134.44a19.36,19.36,0,0,0-8.33-1.88h-.41l-15.5-93.71A19.46,19.46,0,0,0,293.94,37.11ZM240.53,180l50-17.89A19.16,19.16,0,0,0,306.71,171h.57L343,253.49c-.28.22-.55.45-.82.69L239.74,187a19.17,19.17,0,0,0,.84-5.64C240.58,180.87,240.57,180.43,240.53,180Zm-4.59-82.57c8-20,20.69-39.75,37.72-59a19.76,19.76,0,0,0,7.25,2l15.73,95a19.24,19.24,0,0,0-9.15,16.38v.74l-50.23,18a19.22,19.22,0,0,0-11.79-8,145.27,145.27,0,0,1,10.47-65.13Zm-3.89,99.86a17,17,0,0,0,2.36-1.87l102.23,67.13a19,19,0,0,0-.87,4.15L270.26,269c-18.24-24-31-48-38.21-71.72Zm49.6,85.9c-1.26-1.48-2.49-3-3.71-4.44l59.52-2.11a17.08,17.08,0,0,0,.83,1.59L306,309.31c-8.09-7.93-16.36-16.67-24.38-26.12Zm62.91,59.66c-9-6.94-19.81-15.91-31.29-26.64l32.13-31a18.82,18.82,0,0,0,5,2l1.6,51.35a19.3,19.3,0,0,0-7.44,4.23Zm10.34-93.52a19.88,19.88,0,0,0-2.78.2l-35.21-81.43a19.27,19.27,0,0,0,4.5-3.9l80.47,33.08L362,250.7a19.11,19.11,0,0,0-7.09-1.37ZM375.49,350A19.24,19.24,0,0,0,362,338.27L360.39,287A18.75,18.75,0,0,0,366,284.3l100.45,65.21.79.51Zm97.12-8.42L372.4,276.49a11.41,11.41,0,0,0,.53-1.3l104.62,15.2,3.27,47.66a19.11,19.11,0,0,0-8.21,3.55ZM478,203.93a19.53,19.53,0,0,0-4.82.61L452.94,169a19.22,19.22,0,0,0,5.25-17.85,107.21,107.21,0,0,1,107.67-1,19.26,19.26,0,0,0-1.41,11.4l-73.59,47.35a19.23,19.23,0,0,0-12.91-5Zm6.26,37.39a16.7,16.7,0,0,0,2.78-1.21l39.8,42.51a19.29,19.29,0,0,0-2,4.53L487,281.66Zm28.63,108.82c-1.62,0-3.35,0-5.28-.12H502a19.21,19.21,0,0,0-11.13-11l-3.23-47.14,36.86,5.36a19.21,19.21,0,0,0,18.61,14.61l9.9,30.53a106.77,106.77,0,0,1-40.21,7.77Zm75.67-31.34a107.56,107.56,0,0,1-26.36,19.36l-9.37-28.88a19.17,19.17,0,0,0,9.61-16.17l45.09-18.56a19.06,19.06,0,0,0,5.93,5.23,106.48,106.48,0,0,1-24.9,39Zm31.33-74.72a19.24,19.24,0,0,0-16.14,19,17.64,17.64,0,0,0,.13,2.19l-43.82,18a19.23,19.23,0,0,0-6.57-6.93l28.76-99h1.16a19,19,0,0,0,11-3.48,106.15,106.15,0,0,1,25.46,69.27,7.77,7.77,0,0,1,0,1Z"/></g></g></svg>