<svg xmlns="http://www.w3.org/2000/svg" viewBox="0 0 642.2 481.54"><defs><style>.cls-1{fill:#303030;}.cls-2{fill:#0059d1;}</style></defs><title>square</title><g id="Layer_2" data-name="Layer 2"><g id="Layer_1-2" data-name="Layer 1"><path class="cls-1" d="M95.74,395.42a3.75,3.75,0,0,1-1.12,2.8,3.62,3.62,0,0,1-2.8,1H73.09v77.64a3.72,3.72,0,0,1-3.7,3.75h-.16a3.76,3.76,0,0,1-3.49-3.75V399.17H47a3.69,3.69,0,0,1-2.8-1,3.62,3.62,0,0,1-1.12-2.8h0a3.64,3.64,0,0,1,1.12-2.79,3.8,3.8,0,0,1,2.8-1H92.2a3.7,3.7,0,0,1,2.8,1,3.76,3.76,0,0,1,1.12,2.79Z"/><path class="cls-1" d="M108.29,391.54a3.9,3.9,0,0,1,2.81,1,3.7,3.7,0,0,1,1.11,2.8v28.89a31.47,31.47,0,0,1,18.47-7.35,26.06,26.06,0,0,1,26.12,26h0v.05h0v33.89a3.81,3.81,0,0,1-3.72,3.73h0a3.87,3.87,0,0,1-4.14-3.54h0V443a18.43,18.43,0,0,0-36.82-1.71c0,.28,0,.57,0,.85V476.9a3.82,3.82,0,0,1-3.89,3.72h0a3.83,3.83,0,0,1-3.83-3.72V395.31a3.63,3.63,0,0,1,1.11-2.79,3.8,3.8,0,0,1,2.8-1Z"/><path class="cls-1" d="M218.28,469.42a18.46,18.46,0,0,0,6.84-9.4,4.53,4.53,0,0,1,4.25-3.19h0a4.43,4.43,0,0,1,4.48,4.36h0a4.31,4.31,0,0,1-.31,1.67,27.72,27.72,0,0,1-8.8,11.79A34.09,34.09,0,0,1,203,481.49a35.7,35.7,0,0,1-17.49-4.26,29.43,29.43,0,0,1-12-12.22,43.66,43.66,0,0,1,0-37.78A29.78,29.78,0,0,1,185.5,415,35.34,35.34,0,0,1,203,410.72,34.58,34.58,0,0,1,220.52,415a28.8,28.8,0,0,1,11.22,11.16,31.53,31.53,0,0,1,4,15.41h0a6.41,6.41,0,0,1-6.38,6.36H180.14a2,2,0,0,0-2.1,1.9h0v.1h0v.19a28.23,28.23,0,0,0,3.52,12.43,22,22,0,0,0,9,8.78,26.23,26.23,0,0,0,12,2.81A25.57,25.57,0,0,0,218.28,469.42Zm-27.54-48.81a22.55,22.55,0,0,0-9,8.62,27,27,0,0,0-3.4,11.2,2.79,2.79,0,0,0,2.54,3H224.2a2.8,2.8,0,0,0,2.8-2.8,23.68,23.68,0,0,0-2.8-11.5,20.84,20.84,0,0,0-8.84-8.6,28.1,28.1,0,0,0-24.57,0Z"/><path class="cls-1" d="M347.63,398.53a39.36,39.36,0,0,1,12.29,15,4.41,4.41,0,0,1-2,5.92h0a4.24,4.24,0,0,1-1.92.46h0a4.23,4.23,0,0,1-3.91-2.43,31,31,0,0,0-10.77-12.85A35.05,35.05,0,0,0,321,399,31.24,31.24,0,0,0,292.4,416.6a47.41,47.41,0,0,0,0,39.38,31.24,31.24,0,0,0,28.69,17.27,35,35,0,0,0,20.34-5.61,30.73,30.73,0,0,0,10.78-12.87,4.23,4.23,0,0,1,3.91-2.43h0a4.42,4.42,0,0,1,4.37,4.47h0a4.18,4.18,0,0,1-.45,1.9,39.21,39.21,0,0,1-12.29,15,43.49,43.49,0,0,1-26.48,7.8,41.83,41.83,0,0,1-21.89-5.83,39.71,39.71,0,0,1-14.91-16.11,55,55,0,0,1,0-47.11,39.37,39.37,0,0,1,14.91-16.13,42.26,42.26,0,0,1,21.89-5.73A43.45,43.45,0,0,1,347.63,398.53Z"/><path class="cls-1" d="M381.5,391.54a3.7,3.7,0,0,1,3.92,3.46,2.28,2.28,0,0,1,0,.37V476.9a3.82,3.82,0,0,1-3.78,3.75h-.42a3.84,3.84,0,0,1-3.78-3.75V395.31a3.62,3.62,0,0,1,1.13-2.79,3.72,3.72,0,0,1,2.65-1Z"/><path class="cls-1" d="M430.14,417a31.8,31.8,0,1,1-22.4,9.32A30.81,30.81,0,0,1,430.14,417Zm0,7.83A24.19,24.19,0,1,0,454.2,449.1v-.16a24.06,24.06,0,0,0-23.85-24.27h-.23Z"/><path class="cls-1" d="M480.13,454.5a18.44,18.44,0,0,0,36.77,2.81,16.36,16.36,0,0,0,0-2.8V420.67a3.84,3.84,0,0,1,3.74-3.91h.18a3.54,3.54,0,0,1,2.8,1.11,3.75,3.75,0,0,1,1.12,2.8V454.5a26.14,26.14,0,1,1-52.28,0h0V420.67a3.68,3.68,0,0,1,1.09-2.8,3.55,3.55,0,0,1,2.8-1.11h.2a3.51,3.51,0,0,1,2.65,1.11,3.69,3.69,0,0,1,1.1,2.8Z"/><path class="cls-1" d="M595.27,391.54a4,4,0,0,1,2.79,1,3.92,3.92,0,0,1,1.1,2.8v53.54a31.86,31.86,0,1,1-31.86-32q12,0,24.16,10.74V395.28a3.64,3.64,0,0,1,3.43-3.82h.32Zm-45.18,40.24a24.19,24.19,0,0,0,17,41.23,22.86,22.86,0,0,0,16.8-7.11A24.13,24.13,0,1,0,550.6,431l-.44.42h0l-.31.31Z"/><path class="cls-2" d="M630.82,245.54h0v-2.39A117.53,117.53,0,0,0,601.3,165a19.22,19.22,0,0,0-28-23.27,118.11,118.11,0,0,0-120.45-.22,19.32,19.32,0,0,0-9-4.92A128.94,128.94,0,0,0,301.58,13.05a20.27,20.27,0,0,0-39.21,7.23,19.65,19.65,0,0,0,.25,3.17,129.33,129.33,0,0,0-58.15,51.47A91.93,91.93,0,0,0,59.58,178,95,95,0,0,0,95.2,361.15c1.56,0,3.12,0,4.68-.13h238.9a19.23,19.23,0,0,0,37.6,0h88.95a19.23,19.23,0,0,0,37.6,0h4.22c1.91.08,3.81.13,5.74.13a118,118,0,0,0,111.37-78.91,19.22,19.22,0,0,0,6.61-36.7Zm-58.11-71.41-28.83,99.29h-.67a19.19,19.19,0,0,0-9.17,2.33L494.29,233.3a19.29,19.29,0,0,0,2-16l72.53-46.66A19,19,0,0,0,572.71,174.13ZM444.25,174l20.19,35.53a20.7,20.7,0,0,0-1.75,2L417.6,193l14.74-19.73a19.2,19.2,0,0,0,11.91.75ZM322.64,141l31.89-31a19.22,19.22,0,0,0,20.94-.88l46.46,38.31a19.18,19.18,0,0,0,2.39,19.81L408.05,189l-82.4-33.88a19.2,19.2,0,0,0-3-14.09Zm88.79,60.17,47.46,19.51a18.18,18.18,0,0,0-.16,2.44A19.21,19.21,0,0,0,474.23,242l2.62,38.18-103-15a19.05,19.05,0,0,0-3.83-8.56ZM407.15,67.71a116.87,116.87,0,0,1,25.65,69.58,19,19,0,0,0-4.55,2.4l-46.46-38.3a19.19,19.19,0,0,0,.36-15ZM302.56,24a117.94,117.94,0,0,1,95.83,33.87c.75.75,1.48,1.5,2.21,2.27L376.21,78.34a19.23,19.23,0,0,0-22.37-1L300.6,29.66A19.74,19.74,0,0,0,302.56,24Zm-8.62,13.1,53.21,47.67a19.24,19.24,0,0,0,.38,18L315,134.44a19.36,19.36,0,0,0-8.33-1.88h-.41l-15.5-93.71A19.46,19.46,0,0,0,293.94,37.11ZM240.53,180l50-17.89A19.16,19.16,0,0,0,306.71,171h.57L343,253.49c-.28.22-.55.45-.82.69L239.74,187a19.17,19.17,0,0,0,.84-5.64C240.58,180.87,240.57,180.43,240.53,180Zm-4.59-82.57c8-20,20.69-39.75,37.72-59a19.76,19.76,0,0,0,7.25,2l15.73,95a19.24,19.24,0,0,0-9.15,16.38v.74l-50.23,18a19.22,19.22,0,0,0-11.79-8,145.27,145.27,0,0,1,10.47-65.13Zm-3.89,99.86a17,17,0,0,0,2.36-1.87l102.23,67.13a19,19,0,0,0-.87,4.15L270.26,269c-18.24-24-31-48-38.21-71.72Zm49.6,85.9c-1.26-1.48-2.49-3-3.71-4.44l59.52-2.11a17.08,17.08,0,0,0,.83,1.59L306,309.31c-8.09-7.93-16.36-16.67-24.38-26.12Zm62.91,59.66c-9-6.94-19.81-15.91-31.29-26.64l32.13-31a18.82,18.82,0,0,0,5,2l1.6,51.35a19.3,19.3,0,0,0-7.44,4.23Zm10.34-93.52a19.88,19.88,0,0,0-2.78.2l-35.21-81.43a19.27,19.27,0,0,0,4.5-3.9l80.47,33.08L362,250.7a19.11,19.11,0,0,0-7.09-1.37ZM375.49,350A19.24,19.24,0,0,0,362,338.27L360.39,287A18.75,18.75,0,0,0,366,284.3l100.45,65.21.79.51Zm97.12-8.42L372.4,276.49a11.41,11.41,0,0,0,.53-1.3l104.62,15.2,3.27,47.66a19.11,19.11,0,0,0-8.21,3.55ZM478,203.93a19.53,19.53,0,0,0-4.82.61L452.94,169a19.22,19.22,0,0,0,5.25-17.85,107.21,107.21,0,0,1,107.67-1,19.26,19.26,0,0,0-1.41,11.4l-73.59,47.35a19.23,19.23,0,0,0-12.91-5Zm6.26,37.39a16.7,16.7,0,0,0,2.78-1.21l39.8,42.51a19.29,19.29,0,0,0-2,4.53L487,281.66Zm28.63,108.82c-1.62,0-3.35,0-5.28-.12H502a19.21,19.21,0,0,0-11.13-11l-3.23-47.14,36.86,5.36a19.21,19.21,0,0,0,18.61,14.61l9.9,30.53a106.77,106.77,0,0,1-40.21,7.77Zm75.67-31.34a107.56,107.56,0,0,1-26.36,19.36l-9.37-28.88a19.17,19.17,0,0,0,9.61-16.17l45.09-18.56a19.06,19.06,0,0,0,5.93,5.23,106.48,106.48,0,0,1-24.9,39Zm31.33-74.72a19.24,19.24,0,0,0-16.14,19,17.64,17.64,0,0,0,.13,2.19l-43.82,18a19.23,19.23,0,0,0-6.57-6.93l28.76-99h1.16a19,19,0,0,0,11-3.48,106.15,106.15,0,0,1,25.46,69.27,7.77,7.77,0,0,1,0,1Z"/></g></g></svg>