<svg xmlns="http://www.w3.org/2000/svg" viewBox="0 0 512 512"><metadata/><g fill="#242d3c"><path d="M360 364H152v-80h208zm-192-16h176v-48H168zM360 460H152v-80h208zm-192-16h176v-48H168zM360 268H152v-80h208zm-192-16h176v-48H168z"/><path d="M344 300H168v-48h176zm-160-16h144v-16H184zM344 396H168v-48h176zm-160-16h144v-16H184zM328 460H184v16h-16v-32h176v32h-16z"/></g><g fill="#ef5350"><path d="M184 220h80v16h-80zM312 220h16v16h-16zM184 316h80v16h-80zM312 316h16v16h-16zM184 412h80v16h-80zM312 412h16v16h-16z"/></g><g fill="#2c5eb1"><path d="M192 148h-16c0-44.112 35.888-80 80-80v16c-35.288 0-64 28.712-64 64z"/><path d="M440 332h-64v-16h64c30.872 0 56-25.128 56-56 0-30.88-25.128-56-56-56h-2.4a8.028 8.028 0 01-6.496-3.328 7.991 7.991 0 01-1.096-7.208C431.296 189.624 432 184.84 432 180c0-30.88-25.128-56-56-56-6.928 0-12.224.832-17.192 2.688a7.95 7.95 0 01-6.376-.336 8.02 8.02 0 01-4.104-4.888C336.208 80.568 298.24 52 256 52s-80.208 28.568-92.328 69.472a8.008 8.008 0 01-10.48 5.224C148.232 124.832 142.928 124 136 124c-30.88 0-56 25.12-56 56 0 4.832.704 9.624 1.992 13.472.816 2.44.4 5.12-1.104 7.208A7.995 7.995 0 0174.4 204H72c-30.88 0-56 25.12-56 56 0 30.872 25.12 56 56 56h64v16H72c-39.696 0-72-32.296-72-72 0-37.176 28.328-67.872 64.536-71.616A64.092 64.092 0 0164 180c0-39.696 32.304-72 72-72 5.544 0 10.36.44 14.856 1.392C167.208 65.808 209.36 36 256 36c46.64 0 88.8 29.808 105.144 73.392C365.632 108.44 370.456 108 376 108c39.704 0 72 32.304 72 72 0 2.848-.176 5.664-.528 8.384C483.672 192.128 512 222.824 512 260c0 39.704-32.296 72-72 72z"/></g><g fill="#242d3c"><path d="M376 380h16v16h-16zM376 412h16v16h-16zM376 444h16v16h-16zM120 444h16v16h-16zM120 412h16v16h-16zM120 380h16v16h-16z"/></g></svg>