<svg xmlns="http://www.w3.org/2000/svg" viewBox="0 0 1149.85 1149.85"><defs><style>.cls-1{fill:#fff;}.cls-2{fill:#0059d1;}</style></defs><title>horizontal_white_text_1</title><g id="Layer_2" data-name="Layer 2"><g id="Layer_1-2" data-name="Layer 1"><rect width="1149.85" height="1149.85"/><path class="cls-1" d="M466,534.15a3.77,3.77,0,0,1-1.12,2.8,3.71,3.71,0,0,1-2.8,1H443.36v77.63a3.73,3.73,0,0,1-3.7,3.75h-.16a3.74,3.74,0,0,1-3.53-3.75V537.9H417.21a3.65,3.65,0,0,1-3.91-3.39c0-.13,0-.27,0-.41h0a3.59,3.59,0,0,1,1.14-2.79,3.88,3.88,0,0,1,2.79-1h45.21a3.76,3.76,0,0,1,4,3.79Z"/><path class="cls-1" d="M478.56,530.26a3.89,3.89,0,0,1,2.8,1,3.72,3.72,0,0,1,1.12,2.8V563A31.42,31.42,0,0,1,501,555.6a26.07,26.07,0,0,1,26.11,26v.06h0v33.88a3.79,3.79,0,0,1-3.72,3.73h0a3.87,3.87,0,0,1-4.14-3.55h0v-34a18.42,18.42,0,0,0-36.83-.86v34.75a3.83,3.83,0,0,1-3.89,3.71h0a3.83,3.83,0,0,1-3.83-3.71V534a3.57,3.57,0,0,1,1.11-2.79,3.8,3.8,0,0,1,2.8-1Z"/><path class="cls-1" d="M588.55,608.15a18.48,18.48,0,0,0,6.83-9.4,4.52,4.52,0,0,1,4.25-3.19h0a4.42,4.42,0,0,1,4.48,4.36h0a4,4,0,0,1-.31,1.67A27.58,27.58,0,0,1,595,613.42a34.2,34.2,0,0,1-21.72,6.84A35.67,35.67,0,0,1,555.77,616a29.36,29.36,0,0,1-11.95-12.26,43.66,43.66,0,0,1,0-37.78,29.66,29.66,0,0,1,11.95-12.26,35.23,35.23,0,0,1,17.49-4.28,34.44,34.44,0,0,1,17.52,4.25,28.72,28.72,0,0,1,11.2,11.2,31.5,31.5,0,0,1,4,15.41h0a6.43,6.43,0,0,1-6.39,6.36H550.43a2,2,0,0,0-2.11,1.88v.12h0v.19a28.24,28.24,0,0,0,3.53,12.43,22.06,22.06,0,0,0,9,8.78,26.33,26.33,0,0,0,12,2.81A25.67,25.67,0,0,0,588.55,608.15ZM561,559.34a22.42,22.42,0,0,0-9,8.62,27,27,0,0,0-3.41,11.2,2.8,2.8,0,0,0,2.55,3h43.31a2.8,2.8,0,0,0,2.8-2.8,23.77,23.77,0,0,0-2.8-11.5,20.84,20.84,0,0,0-8.84-8.6,28.06,28.06,0,0,0-24.58,0Z"/><path class="cls-1" d="M717.9,537.26a39.29,39.29,0,0,1,12.29,15,4.42,4.42,0,0,1-2,5.92h0a4.38,4.38,0,0,1-1.92.46h0a4.26,4.26,0,0,1-3.92-2.43,30.81,30.81,0,0,0-10.76-12.79,35,35,0,0,0-20.35-5.61,31.24,31.24,0,0,0-28.57,17.61,47.41,47.41,0,0,0,0,39.38A31.24,31.24,0,0,0,691.36,612a35,35,0,0,0,20.34-5.6,30.84,30.84,0,0,0,10.73-12.88,4.24,4.24,0,0,1,4-2.43h0a4.42,4.42,0,0,1,4.37,4.47h0a4.32,4.32,0,0,1-.45,1.9,39.29,39.29,0,0,1-12.29,15,43.55,43.55,0,0,1-26.48,7.8,41.81,41.81,0,0,1-21.89-5.83,39.76,39.76,0,0,1-15-16,55,55,0,0,1,0-47.11,39.3,39.3,0,0,1,14.92-16.12,42.2,42.2,0,0,1,21.89-5.77A43.41,43.41,0,0,1,717.9,537.26Z"/><path class="cls-1" d="M751.77,530.26a3.71,3.71,0,0,1,3.92,3.47v81.9a3.83,3.83,0,0,1-3.78,3.74h-.42a3.83,3.83,0,0,1-3.78-3.74V534a3.61,3.61,0,0,1,1.12-2.79,3.85,3.85,0,0,1,2.66-1Z"/><path class="cls-1" d="M800.43,555.67A31.84,31.84,0,1,1,778,565,30.84,30.84,0,0,1,800.43,555.67Zm0,7.84a24.19,24.19,0,1,0,24,24.38v-.22a24.06,24.06,0,0,0-23.81-24.25h-.19Z"/><path class="cls-1" d="M850.43,593.23A18.45,18.45,0,0,0,887.21,596a16.36,16.36,0,0,0,0-2.8V559.42A3.84,3.84,0,0,1,891,555.5h.18a3.55,3.55,0,0,1,2.8,1.12,3.77,3.77,0,0,1,1.12,2.8v33.81a26.15,26.15,0,0,1-52.29,0h0V559.42a3.66,3.66,0,0,1,1.1-2.8,3.54,3.54,0,0,1,2.79-1.12h.2a3.57,3.57,0,0,1,2.58,1.1,3.62,3.62,0,0,1,1.09,2.8Z"/><path class="cls-1" d="M965.53,530.26a4,4,0,0,1,2.8,1,3.94,3.94,0,0,1,1.09,2.8v53.55a31.86,31.86,0,1,1-31.85-32q12,0,24.15,10.75V534a3.67,3.67,0,0,1,3.44-3.83h.27Zm-45.17,40.25a24.19,24.19,0,0,0,17,41.23,22.9,22.9,0,0,0,16.8-7.11,24.13,24.13,0,1,0-33.29-34.94l-.44.43h0l-.31.31Z"/><path class="cls-2" d="M389.83,593.94h0v-.79a39,39,0,0,0-9.8-25.93,6.22,6.22,0,0,0,.43-2.3,6.39,6.39,0,0,0-9.74-5.43,39.2,39.2,0,0,0-40-.07,6.32,6.32,0,0,0-3-1.63A42.79,42.79,0,0,0,285,516.52a41.5,41.5,0,0,0-4.46.23,6.73,6.73,0,0,0-13,2.4,6.63,6.63,0,0,0,.08,1,43,43,0,0,0-19.32,17.14,30.53,30.53,0,0,0-48.11,34.22A31.56,31.56,0,0,0,212,632.33h80.88a6.38,6.38,0,0,0,12.48,0h29.53a6.39,6.39,0,0,0,12.49,0h3.29a39.2,39.2,0,0,0,37-26.2,6.38,6.38,0,0,0,2.19-12.19Zm-19.29-23.71-9.58,33h-.22a6.4,6.4,0,0,0-3,.77l-13.2-14.09a6.24,6.24,0,0,0,.7-5.3l24.08-15.5A6.47,6.47,0,0,0,370.54,570.23Zm-42.66-.05L334.59,582c-.2.21-.4.43-.58.66l-15-6.15,4.89-6.55a6.51,6.51,0,0,0,4,.25Zm-40.37-10.93,10.58-10.32a6.4,6.4,0,0,0,7-.29l15.34,12.72a6.49,6.49,0,0,0-.57,2.64,6.33,6.33,0,0,0,1.37,3.94l-5.4,7.23-27.32-11.25a6.71,6.71,0,0,0,.09-1.1A6.23,6.23,0,0,0,287.51,559.25Zm29.48,20,15.76,6.48a5.52,5.52,0,0,0-.06.81,6.38,6.38,0,0,0,5.15,6.26l.87,12.62-34.21-5a6.26,6.26,0,0,0-1.27-2.84Zm-1.41-44.32A38.71,38.71,0,0,1,324.1,558a6.84,6.84,0,0,0-1.51.8l-15.43-12.75a6.34,6.34,0,0,0,.12-5Zm-34.74-14.51a38,38,0,0,1,4.13-.22,38.93,38.93,0,0,1,27.69,11.46c.25.25.49.5.73.76l-8.1,6a6.37,6.37,0,0,0-7.42-.34l-17.68-15.82A6.41,6.41,0,0,0,280.84,520.42ZM278,524.77l17.67,15.83a6.4,6.4,0,0,0,.13,6L285,557.11a6.4,6.4,0,0,0-2.76-.62h-.14l-5.15-31.17a7.61,7.61,0,0,0,1.05-.58Zm-17.74,47.41,16.59-5.94a6.39,6.39,0,0,0,5.39,3h.21l11.84,27.39-.27.23-34-22.33a6.28,6.28,0,0,0,.28-1.87A2.59,2.59,0,0,0,260.24,572.18Zm-1.52-27.41a68.86,68.86,0,0,1,12.52-19.59,6.58,6.58,0,0,0,2.41.67l5.22,31.57a6.39,6.39,0,0,0-3,5.44v.25l-16.68,6a6.4,6.4,0,0,0-3.94-2.69A48.27,48.27,0,0,1,258.72,544.77Zm-1.29,33.15a5.18,5.18,0,0,0,.78-.62l33.94,22.29a6.5,6.5,0,0,0-.28,1.38l-21.76.77A76.8,76.8,0,0,1,257.43,577.92Zm16.47,28.5L272.66,605l19.77-.7a5.28,5.28,0,0,0,.27.53L282,615.09C279.31,612.48,276.56,609.58,273.9,606.42Zm20.88,19.81c-3-2.3-6.57-5.28-10.38-8.84l10.66-10.28a6.61,6.61,0,0,0,1.66.66l.53,17a6.5,6.5,0,0,0-2.47,1.48Zm3.44-31a7.28,7.28,0,0,0-.93.07l-11.69-27a6.18,6.18,0,0,0,1.5-1.29l26.72,11-13.25,17.64a6.26,6.26,0,0,0-2.35-.45Zm6.83,33.43a6.35,6.35,0,0,0-4.47-3.89l-.54-17a6.35,6.35,0,0,0,1.85-.9l33.36,21.55.26.17Zm32.25-2.79L304,604.22c.06-.14.12-.28.17-.43l34.74,5L340,624.61a6.45,6.45,0,0,0-2.73,1.23Zm1.77-45.71a6.68,6.68,0,0,0-1.6.2l-6.7-11.8a6.26,6.26,0,0,0,1.74-5.92,35.59,35.59,0,0,1,35.75-.33,6.49,6.49,0,0,0-.57,2.64,8.77,8.77,0,0,0,.1,1.14l-24.43,15.69a6.39,6.39,0,0,0-4.29-1.65Zm2.08,12.42a6.41,6.41,0,0,0,.93-.41l13.21,14.12a6.74,6.74,0,0,0-.67,1.5L342.07,606Zm9.51,36.13h-3.59a6.33,6.33,0,0,0-3.69-3.65l-1.08-15.65,12.24,1.78a6.39,6.39,0,0,0,6.18,4.85L364,626.18a35.58,35.58,0,0,1-13.34,2.5Zm25.12-10.41a35.19,35.19,0,0,1-8.74,6.43l-3.11-9.59a6.37,6.37,0,0,0,3.19-5.37l15-6.16a6.39,6.39,0,0,0,2,1.73,35.16,35.16,0,0,1-8.34,12.93Zm10.41-24.88a6.38,6.38,0,0,0-5.36,6.3c0,.24,0,.49,0,.73l-14.55,6a6.17,6.17,0,0,0-2.18-2.3l9.55-32.89H374a6.39,6.39,0,0,0,3.67-1.15,35.2,35.2,0,0,1,8.45,23Z"/></g></g></svg>