<svg xmlns="http://www.w3.org/2000/svg" viewBox="0 0 1149.85 1149.85"><defs><style>.cls-1{fill:#fff;}.cls-2{fill:#0059d1;}</style></defs><title>icon_1</title><g id="Layer_2" data-name="Layer 2"><g id="Layer_1-2" data-name="Layer 1"><rect class="cls-1" width="1149.85" height="1149.85"/><path class="cls-2" d="M884.65,632.36h0V630a117.56,117.56,0,0,0-29.52-78.14,19.22,19.22,0,0,0-28-23.27,118.09,118.09,0,0,0-120.45-.22,19.14,19.14,0,0,0-9-4.92A128.94,128.94,0,0,0,555.41,399.87a20.27,20.27,0,0,0-39.21,7.23,18.73,18.73,0,0,0,.25,3.17,129.27,129.27,0,0,0-58.15,51.47A91.93,91.93,0,0,0,313.41,564.83,95,95,0,0,0,349,748c1.56,0,3.12,0,4.68-.13h238.9a19.23,19.23,0,0,0,37.6,0h88.95a19.23,19.23,0,0,0,37.6,0H761c1.91.08,3.81.13,5.74.13a118,118,0,0,0,111.37-78.91,19.22,19.22,0,0,0,6.61-36.7ZM826.54,561l-28.83,99.29H797a18.94,18.94,0,0,0-9.17,2.33l-39.75-42.45a19.3,19.3,0,0,0,2-16l72.53-46.66A19.29,19.29,0,0,0,826.54,561Zm-128.46-.12,20.19,35.53a17.53,17.53,0,0,0-1.75,2l-45.09-18.54,14.74-19.73a19.2,19.2,0,0,0,11.91.75Zm-121.61-33,31.89-31A19.22,19.22,0,0,0,629.3,496l46.46,38.31a19.18,19.18,0,0,0,2.39,19.81l-16.27,21.76L579.48,542a19.23,19.23,0,0,0-3-14.09ZM665.26,588l47.46,19.51a16.58,16.58,0,0,0-.16,2.44,19.21,19.21,0,0,0,15.5,18.88L730.68,667l-103-15a19.11,19.11,0,0,0-3.83-8.56ZM661,454.53a116.85,116.85,0,0,1,25.65,69.58,18.51,18.51,0,0,0-4.55,2.4l-46.46-38.3a19.2,19.2,0,0,0,.36-15Zm-104.59-43.7a117.91,117.91,0,0,1,95.83,33.87c.75.75,1.48,1.5,2.21,2.27L630,465.16a19.21,19.21,0,0,0-22.37-1l-53.24-47.68A20.16,20.16,0,0,0,556.39,410.83Zm-8.62,13.1L601,471.6a19.19,19.19,0,0,0,.38,18l-32.51,31.66a19.39,19.39,0,0,0-8.33-1.88h-.41l-15.5-93.71A20.25,20.25,0,0,0,547.77,423.93Zm-53.41,142.9,50-17.89a19.19,19.19,0,0,0,16.18,8.89h.57l35.67,82.48c-.28.22-.55.45-.82.69L493.57,573.77a19.27,19.27,0,0,0,.84-5.64C494.41,567.69,494.4,567.25,494.36,566.83Zm-4.59-82.57c8-20,20.69-39.75,37.72-59a19.85,19.85,0,0,0,7.25,2l15.73,95a19.2,19.2,0,0,0-9.15,16.38v.74l-50.23,18a19.22,19.22,0,0,0-11.79-8,145,145,0,0,1,10.47-65.13Zm-3.89,99.86a19.18,19.18,0,0,0,2.36-1.87l102.23,67.13a18.47,18.47,0,0,0-.87,4.15l-65.51,2.3c-18.24-24-31-48-38.21-71.72Zm49.6,85.9c-1.26-1.48-2.49-3-3.71-4.44l59.52-2.11a15.05,15.05,0,0,0,.83,1.59l-32.26,31.07c-8.09-7.93-16.36-16.67-24.38-26.12Zm62.91,59.66c-9-6.94-19.81-15.91-31.29-26.64l32.13-30.95a19,19,0,0,0,5,2l1.6,51.35a19.17,19.17,0,0,0-7.44,4.23Zm10.34-93.52a19.88,19.88,0,0,0-2.78.2l-35.21-81.43a19.71,19.71,0,0,0,4.5-3.9l80.47,33.08-39.89,53.41a19,19,0,0,0-7.09-1.37Zm20.59,100.67a19.26,19.26,0,0,0-13.49-11.74l-1.61-51.26a19.12,19.12,0,0,0,5.58-2.71l100.45,65.21.79.51Zm97.12-8.42-100.21-65.1c.2-.42.37-.86.53-1.3l104.62,15.2,3.27,47.66a18.94,18.94,0,0,0-8.21,3.55Zm5.34-137.66a19.07,19.07,0,0,0-4.82.61l-20.19-35.53a19.1,19.1,0,0,0,5.71-13.66A19.7,19.7,0,0,0,712,538a107.21,107.21,0,0,1,107.67-1,19.25,19.25,0,0,0-1.41,11.4l-73.59,47.35a19.15,19.15,0,0,0-12.91-5ZM738,628.14a17.58,17.58,0,0,0,2.78-1.21l39.8,42.51a18.5,18.5,0,0,0-2,4.53l-37.8-5.49ZM766.67,737c-1.62,0-3.35,0-5.28-.12h-5.52a19.21,19.21,0,0,0-11.13-11l-3.23-47.14,36.86,5.36A19.23,19.23,0,0,0,797,698.67l9.9,30.53A106.8,106.8,0,0,1,766.67,737Zm75.67-31.34A107.56,107.56,0,0,1,816,725l-9.37-28.88a19.2,19.2,0,0,0,9.61-16.17l45.09-18.56a19.06,19.06,0,0,0,5.93,5.23,106.57,106.57,0,0,1-24.9,39Zm31.33-74.72a19.21,19.21,0,0,0-16.14,19,16.09,16.09,0,0,0,.13,2.19l-43.82,18a19.15,19.15,0,0,0-6.57-6.93l28.76-99h1.16a19.1,19.1,0,0,0,11-3.48A106.15,106.15,0,0,1,873.65,630a7.77,7.77,0,0,1,0,1Z"/></g></g></svg>