<svg xmlns="http://www.w3.org/2000/svg" viewBox="0 0 1149.85 1149.85"><defs><style>.cls-1{fill:#fff;}</style></defs><title>square_white_1</title><g id="Layer_2" data-name="Layer 2"><g id="Layer_1-2" data-name="Layer 1"><rect width="1149.85" height="1149.85"/><path class="cls-1" d="M349.57,729.58a3.82,3.82,0,0,1-1.12,2.8,3.71,3.71,0,0,1-2.8,1H326.92V811a3.73,3.73,0,0,1-3.7,3.75h-.16a3.76,3.76,0,0,1-3.49-3.75V733.33H300.78a3.75,3.75,0,0,1-2.8-1,3.64,3.64,0,0,1-1.12-2.8h0a3.61,3.61,0,0,1,1.12-2.79,3.76,3.76,0,0,1,2.8-1H346a3.67,3.67,0,0,1,2.8,1,3.77,3.77,0,0,1,1.12,2.79Z"/><path class="cls-1" d="M362.12,725.7a3.83,3.83,0,0,1,2.81,1,3.71,3.71,0,0,1,1.11,2.8v28.89A31.34,31.34,0,0,1,384.51,751a26.05,26.05,0,0,1,26.12,26h0v.05h0V811a3.84,3.84,0,0,1-3.72,3.73h0a3.87,3.87,0,0,1-4.14-3.54h0v-34A18.43,18.43,0,0,0,366,775.45c0,.28,0,.57,0,.86v34.75a3.83,3.83,0,0,1-3.89,3.72h0a3.83,3.83,0,0,1-3.83-3.72V729.47a3.57,3.57,0,0,1,1.11-2.79,3.72,3.72,0,0,1,2.8-1Z"/><path class="cls-1" d="M472.11,803.58a18.54,18.54,0,0,0,6.84-9.4A4.49,4.49,0,0,1,483.2,791h0a4.43,4.43,0,0,1,4.48,4.36h0a4.58,4.58,0,0,1-.31,1.67,27.84,27.84,0,0,1-8.8,11.79,34.25,34.25,0,0,1-21.73,6.84,35.78,35.78,0,0,1-17.49-4.26,29.49,29.49,0,0,1-12-12.22,43.66,43.66,0,0,1,0-37.78,29.66,29.66,0,0,1,11.95-12.26,35.1,35.1,0,0,1,17.49-4.25,34.48,34.48,0,0,1,17.53,4.25,28.67,28.67,0,0,1,11.22,11.16,31.58,31.58,0,0,1,4,15.41h0a6.44,6.44,0,0,1-6.38,6.36H434a2,2,0,0,0-2.1,1.89h0v.1h0v.19a28.13,28.13,0,0,0,3.52,12.43,22,22,0,0,0,9,8.78,26.43,26.43,0,0,0,12,2.81A25.67,25.67,0,0,0,472.11,803.58Zm-27.54-48.81a22.42,22.42,0,0,0-9,8.62,26.77,26.77,0,0,0-3.4,11.2,2.8,2.8,0,0,0,2.54,3H478a2.8,2.8,0,0,0,2.8-2.8,23.74,23.74,0,0,0-2.8-11.5,20.72,20.72,0,0,0-8.84-8.6,28.1,28.1,0,0,0-24.57,0Z"/><path class="cls-1" d="M601.46,732.69a39.3,39.3,0,0,1,12.29,15,4.41,4.41,0,0,1-2,5.91h0a4.41,4.41,0,0,1-1.92.46h0a4.23,4.23,0,0,1-3.91-2.43,30.93,30.93,0,0,0-10.77-12.85,35,35,0,0,0-20.35-5.61,31.21,31.21,0,0,0-28.57,17.58,47.41,47.41,0,0,0,0,39.38,31.27,31.27,0,0,0,28.69,17.27,35.1,35.1,0,0,0,20.34-5.61A31,31,0,0,0,606,788.93,4.2,4.2,0,0,1,610,786.5h0a4.41,4.41,0,0,1,4.37,4.47h0a4.32,4.32,0,0,1-.45,1.9,39.45,39.45,0,0,1-12.29,15,43.57,43.57,0,0,1-26.48,7.8,41.9,41.9,0,0,1-21.89-5.83,39.84,39.84,0,0,1-14.91-16.11,55,55,0,0,1,0-47.11,39.18,39.18,0,0,1,14.91-16.13,42.16,42.16,0,0,1,21.89-5.73A43.34,43.34,0,0,1,601.46,732.69Z"/><path class="cls-1" d="M635.33,725.7a3.69,3.69,0,0,1,3.92,3.46,2.28,2.28,0,0,1,0,.37v81.53a3.85,3.85,0,0,1-3.78,3.75h-.42a3.85,3.85,0,0,1-3.78-3.75V729.47a3.56,3.56,0,0,1,1.13-2.79,3.72,3.72,0,0,1,2.65-1Z"/><path class="cls-1" d="M684,751.11a31.82,31.82,0,1,1-22.4,9.32A30.76,30.76,0,0,1,684,751.11Zm0,7.83A24.19,24.19,0,1,0,708,783.26v-.16a24.06,24.06,0,0,0-23.85-24.27H684Z"/><path class="cls-1" d="M734,788.66a18.44,18.44,0,0,0,36.77,2.81,16.36,16.36,0,0,0,0-2.8V754.83a3.82,3.82,0,0,1,3.74-3.91h.18a3.49,3.49,0,0,1,2.8,1.11,3.75,3.75,0,0,1,1.12,2.8v33.83a26.14,26.14,0,1,1-52.28,0h0V754.83a3.62,3.62,0,0,1,1.09-2.8,3.49,3.49,0,0,1,2.8-1.11h.2A3.46,3.46,0,0,1,733,752a3.66,3.66,0,0,1,1.1,2.8Z"/><path class="cls-1" d="M849.1,725.7a4,4,0,0,1,2.79,1,3.93,3.93,0,0,1,1.1,2.8V783a31.86,31.86,0,1,1-31.86-32q12,0,24.16,10.74V729.44a3.62,3.62,0,0,1,3.43-3.82H849Zm-45.18,40.24a24.19,24.19,0,0,0,17,41.23,23,23,0,0,0,16.8-7.11,24.13,24.13,0,0,0-33.29-34.94c-.15.14-.3.28-.44.43h0l-.31.31Z"/><path class="cls-1" d="M884.65,579.7h0v-2.39a117.54,117.54,0,0,0-29.52-78.14,19.22,19.22,0,0,0-28-23.27,118.07,118.07,0,0,0-120.45-.22,19.14,19.14,0,0,0-9-4.92A128.9,128.9,0,0,0,568.83,346.51a125.12,125.12,0,0,0-13.42.7,20.27,20.27,0,0,0-39.21,7.23,18.73,18.73,0,0,0,.25,3.17,129.27,129.27,0,0,0-58.15,51.47A91.93,91.93,0,0,0,313.41,512.17,95,95,0,0,0,349,695.31c1.56,0,3.12,0,4.68-.13h238.9a19.23,19.23,0,0,0,37.6,0h88.95a19.23,19.23,0,0,0,37.6,0H761c1.91.08,3.81.13,5.74.13A118,118,0,0,0,878.09,616.4a19.22,19.22,0,0,0,6.61-36.7Zm-58.11-71.41-28.83,99.29H797a18.94,18.94,0,0,0-9.17,2.33l-39.75-42.45a19.3,19.3,0,0,0,2-16l72.53-46.66A19.59,19.59,0,0,0,826.54,508.29Zm-128.46-.12,20.19,35.53a17.53,17.53,0,0,0-1.75,2l-45.09-18.54,14.74-19.73a19.35,19.35,0,0,0,11.91.75Zm-121.61-33,31.89-31a19.24,19.24,0,0,0,20.94-.88l46.46,38.31a19.18,19.18,0,0,0,2.39,19.81l-16.27,21.76-82.4-33.88a19.23,19.23,0,0,0-3-14.09Zm88.79,60.17,47.46,19.51a16.49,16.49,0,0,0-.16,2.44,19.21,19.21,0,0,0,15.5,18.88l2.62,38.18-103-15a19.06,19.06,0,0,0-3.83-8.56ZM661,401.87a116.82,116.82,0,0,1,25.65,69.58,18.18,18.18,0,0,0-4.55,2.4l-46.46-38.3a19.2,19.2,0,0,0,.36-15Zm-104.59-43.7A117.88,117.88,0,0,1,652.22,392c.75.75,1.48,1.5,2.21,2.27L630,412.5a19.2,19.2,0,0,0-22.37-1l-53.24-47.68A20.27,20.27,0,0,0,556.39,358.17Zm-8.62,13.1L601,418.94a19.19,19.19,0,0,0,.38,18L568.85,468.6a19.25,19.25,0,0,0-8.33-1.88h-.41L544.61,373A21.1,21.1,0,0,0,547.77,371.27Zm-53.41,142.9,50-17.89a19.21,19.21,0,0,0,16.18,8.89h.57l35.67,82.48c-.28.22-.55.45-.82.69L493.57,521.11a19.27,19.27,0,0,0,.84-5.64C494.41,515,494.4,514.59,494.36,514.17Zm-4.59-82.57c8-20,20.69-39.75,37.72-59a19.85,19.85,0,0,0,7.25,2l15.73,95A19.2,19.2,0,0,0,541.32,486v.74l-50.23,18a19.18,19.18,0,0,0-11.79-8,145,145,0,0,1,10.47-65.13Zm-3.89,99.86a20.18,20.18,0,0,0,2.36-1.87l102.23,67.13a18.24,18.24,0,0,0-.87,4.15l-65.51,2.3c-18.24-24-31-48-38.21-71.72Zm49.6,85.9c-1.26-1.48-2.49-3-3.71-4.44l59.52-2.11a15.05,15.05,0,0,0,.83,1.59l-32.26,31.07c-8.09-7.93-16.36-16.67-24.38-26.12ZM598.39,677c-9-6.94-19.81-15.91-31.29-26.64l32.13-31a19,19,0,0,0,5,2l1.6,51.35a19,19,0,0,0-7.44,4.23Zm10.34-93.52a18.48,18.48,0,0,0-2.78.2l-35.21-81.43a20,20,0,0,0,4.5-3.9l80.47,33.08-39.89,53.41a18.75,18.75,0,0,0-7.09-1.37Zm20.59,100.67a19.22,19.22,0,0,0-13.49-11.74l-1.61-51.26a19.37,19.37,0,0,0,5.58-2.71l100.45,65.21.79.51Zm97.12-8.42-100.21-65.1c.2-.43.37-.86.53-1.3l104.62,15.2,3.27,47.66a18.94,18.94,0,0,0-8.21,3.55Zm5.34-137.66a18.63,18.63,0,0,0-4.82.61l-20.19-35.53a19.12,19.12,0,0,0,5.71-13.66,19.63,19.63,0,0,0-.46-4.19,107.16,107.16,0,0,1,107.67-1,19.24,19.24,0,0,0-1.41,11.4l-73.59,47.35a19.15,19.15,0,0,0-12.91-5ZM738,575.48a18.55,18.55,0,0,0,2.78-1.21l39.8,42.51a18.18,18.18,0,0,0-2,4.53l-37.8-5.49ZM766.67,684.3c-1.62,0-3.35,0-5.28-.12h-5.52a19.19,19.19,0,0,0-11.13-11L741.51,626l36.86,5.36A19.23,19.23,0,0,0,797,646l9.9,30.53a107.2,107.2,0,0,1-40.21,7.77ZM842.34,653A107.82,107.82,0,0,1,816,672.32l-9.37-28.88a19.22,19.22,0,0,0,9.61-16.17l45.09-18.56a19.32,19.32,0,0,0,5.93,5.23,106.65,106.65,0,0,1-24.9,39Zm31.33-74.72a19.21,19.21,0,0,0-16.14,19,16.09,16.09,0,0,0,.13,2.19l-43.82,18a19.07,19.07,0,0,0-6.57-6.93l28.76-99h1.16a19.17,19.17,0,0,0,11-3.48,106.13,106.13,0,0,1,25.46,69.27,7.77,7.77,0,0,1,0,1Z"/></g></g></svg>